<mxfile host="app.diagrams.net" modified="2024-05-08T06:53:03.615Z" agent="Mozilla/5.0 (Windows NT 10.0; Win64; x64) AppleWebKit/537.36 (KHTML, like Gecko) Chrome/124.0.0.0 Safari/537.36 Edg/124.0.0.0" etag="yGznh5xUmbFM0QPUKrxk" version="24.3.1" type="github">
  <diagram id="C5RBs43oDa-KdzZeNtuy" name="Page-1">
    <mxGraphModel dx="1123" dy="667" grid="1" gridSize="10" guides="1" tooltips="1" connect="1" arrows="1" fold="1" page="1" pageScale="1" pageWidth="827" pageHeight="1169" math="0" shadow="0">
      <root>
        <mxCell id="WIyWlLk6GJQsqaUBKTNV-0" />
        <mxCell id="WIyWlLk6GJQsqaUBKTNV-1" parent="WIyWlLk6GJQsqaUBKTNV-0" />
        <mxCell id="BUnZnCYHiM6jFHmmQ2mO-3" style="edgeStyle=orthogonalEdgeStyle;rounded=0;orthogonalLoop=1;jettySize=auto;html=1;endSize=3;endArrow=classicThin;endFill=1;" edge="1" parent="WIyWlLk6GJQsqaUBKTNV-1" source="BUnZnCYHiM6jFHmmQ2mO-2" target="BUnZnCYHiM6jFHmmQ2mO-4">
          <mxGeometry relative="1" as="geometry">
            <mxPoint x="280" y="140" as="targetPoint" />
          </mxGeometry>
        </mxCell>
        <mxCell id="BUnZnCYHiM6jFHmmQ2mO-2" value="" style="shape=actor;whiteSpace=wrap;html=1;fillColor=#d5e8d4;strokeColor=#82b366;" vertex="1" parent="WIyWlLk6GJQsqaUBKTNV-1">
          <mxGeometry x="260" y="70" width="40" height="50" as="geometry" />
        </mxCell>
        <mxCell id="BUnZnCYHiM6jFHmmQ2mO-5" style="edgeStyle=orthogonalEdgeStyle;rounded=0;orthogonalLoop=1;jettySize=auto;html=1;endSize=3;endArrow=classicThin;endFill=1;" edge="1" parent="WIyWlLk6GJQsqaUBKTNV-1" source="BUnZnCYHiM6jFHmmQ2mO-4" target="BUnZnCYHiM6jFHmmQ2mO-6">
          <mxGeometry relative="1" as="geometry">
            <mxPoint x="280" y="200" as="targetPoint" />
          </mxGeometry>
        </mxCell>
        <mxCell id="BUnZnCYHiM6jFHmmQ2mO-4" value="insert" style="rounded=0;whiteSpace=wrap;html=1;fillColor=#fff2cc;strokeColor=#d6b656;" vertex="1" parent="WIyWlLk6GJQsqaUBKTNV-1">
          <mxGeometry x="250" y="140" width="60" height="20" as="geometry" />
        </mxCell>
        <mxCell id="BUnZnCYHiM6jFHmmQ2mO-7" style="edgeStyle=orthogonalEdgeStyle;rounded=0;orthogonalLoop=1;jettySize=auto;html=1;entryX=0.5;entryY=0;entryDx=0;entryDy=0;curved=1;endSize=3;endArrow=classicThin;endFill=1;" edge="1" parent="WIyWlLk6GJQsqaUBKTNV-1" source="BUnZnCYHiM6jFHmmQ2mO-6" target="BUnZnCYHiM6jFHmmQ2mO-8">
          <mxGeometry relative="1" as="geometry">
            <mxPoint x="280" y="250" as="targetPoint" />
          </mxGeometry>
        </mxCell>
        <mxCell id="BUnZnCYHiM6jFHmmQ2mO-6" value="input elements" style="rounded=1;whiteSpace=wrap;html=1;fillColor=#dae8fc;strokeColor=#6c8ebf;" vertex="1" parent="WIyWlLk6GJQsqaUBKTNV-1">
          <mxGeometry x="240" y="180" width="80" height="30" as="geometry" />
        </mxCell>
        <mxCell id="BUnZnCYHiM6jFHmmQ2mO-10" style="edgeStyle=orthogonalEdgeStyle;rounded=0;orthogonalLoop=1;jettySize=auto;html=1;entryX=0.5;entryY=0;entryDx=0;entryDy=0;endSize=3;strokeWidth=1;endArrow=classicThin;endFill=1;" edge="1" parent="WIyWlLk6GJQsqaUBKTNV-1" source="BUnZnCYHiM6jFHmmQ2mO-8" target="BUnZnCYHiM6jFHmmQ2mO-9">
          <mxGeometry relative="1" as="geometry" />
        </mxCell>
        <mxCell id="BUnZnCYHiM6jFHmmQ2mO-8" value="select" style="rounded=0;whiteSpace=wrap;html=1;fillColor=#fff2cc;strokeColor=#d6b656;" vertex="1" parent="WIyWlLk6GJQsqaUBKTNV-1">
          <mxGeometry x="250" y="230" width="60" height="20" as="geometry" />
        </mxCell>
        <mxCell id="BUnZnCYHiM6jFHmmQ2mO-14" style="edgeStyle=orthogonalEdgeStyle;rounded=0;orthogonalLoop=1;jettySize=auto;html=1;endSize=3;endArrow=classicThin;endFill=1;" edge="1" parent="WIyWlLk6GJQsqaUBKTNV-1" source="BUnZnCYHiM6jFHmmQ2mO-9">
          <mxGeometry relative="1" as="geometry">
            <mxPoint x="280" y="340" as="targetPoint" />
          </mxGeometry>
        </mxCell>
        <mxCell id="BUnZnCYHiM6jFHmmQ2mO-9" value="Array&lt;div&gt;Linked list&lt;br&gt;Doubly linked list&lt;/div&gt;" style="rounded=1;whiteSpace=wrap;html=1;fillColor=#dae8fc;strokeColor=#6c8ebf;" vertex="1" parent="WIyWlLk6GJQsqaUBKTNV-1">
          <mxGeometry x="230" y="270" width="100" height="50" as="geometry" />
        </mxCell>
        <mxCell id="BUnZnCYHiM6jFHmmQ2mO-16" style="edgeStyle=orthogonalEdgeStyle;rounded=0;orthogonalLoop=1;jettySize=auto;html=1;endArrow=classicThin;endFill=1;endSize=3;" edge="1" parent="WIyWlLk6GJQsqaUBKTNV-1" source="BUnZnCYHiM6jFHmmQ2mO-15">
          <mxGeometry relative="1" as="geometry">
            <mxPoint x="280" y="400" as="targetPoint" />
          </mxGeometry>
        </mxCell>
        <mxCell id="BUnZnCYHiM6jFHmmQ2mO-15" value="Run Quicksort" style="rounded=0;whiteSpace=wrap;html=1;fillColor=#dae8fc;strokeColor=#6c8ebf;" vertex="1" parent="WIyWlLk6GJQsqaUBKTNV-1">
          <mxGeometry x="240" y="340" width="80" height="30" as="geometry" />
        </mxCell>
        <mxCell id="BUnZnCYHiM6jFHmmQ2mO-26" style="edgeStyle=orthogonalEdgeStyle;rounded=0;orthogonalLoop=1;jettySize=auto;html=1;entryX=0.5;entryY=0;entryDx=0;entryDy=0;endArrow=classicThin;endFill=1;endSize=3;" edge="1" parent="WIyWlLk6GJQsqaUBKTNV-1" source="BUnZnCYHiM6jFHmmQ2mO-17" target="BUnZnCYHiM6jFHmmQ2mO-25">
          <mxGeometry relative="1" as="geometry" />
        </mxCell>
        <mxCell id="BUnZnCYHiM6jFHmmQ2mO-17" value="success" style="rounded=0;whiteSpace=wrap;html=1;fillColor=#fff2cc;strokeColor=#d6b656;" vertex="1" parent="WIyWlLk6GJQsqaUBKTNV-1">
          <mxGeometry x="250" y="390" width="60" height="20" as="geometry" />
        </mxCell>
        <mxCell id="BUnZnCYHiM6jFHmmQ2mO-20" style="edgeStyle=orthogonalEdgeStyle;rounded=0;orthogonalLoop=1;jettySize=auto;html=1;endArrow=classicThin;endFill=1;endSize=3;" edge="1" parent="WIyWlLk6GJQsqaUBKTNV-1" source="BUnZnCYHiM6jFHmmQ2mO-18">
          <mxGeometry relative="1" as="geometry">
            <mxPoint x="400" y="310" as="targetPoint" />
          </mxGeometry>
        </mxCell>
        <mxCell id="BUnZnCYHiM6jFHmmQ2mO-18" value="fail" style="rounded=0;whiteSpace=wrap;html=1;fillColor=#fff2cc;strokeColor=#d6b656;" vertex="1" parent="WIyWlLk6GJQsqaUBKTNV-1">
          <mxGeometry x="370" y="345" width="60" height="20" as="geometry" />
        </mxCell>
        <mxCell id="BUnZnCYHiM6jFHmmQ2mO-19" style="edgeStyle=orthogonalEdgeStyle;rounded=0;orthogonalLoop=1;jettySize=auto;html=1;entryX=0;entryY=0.5;entryDx=0;entryDy=0;endArrow=classicThin;endFill=1;endSize=3;" edge="1" parent="WIyWlLk6GJQsqaUBKTNV-1" source="BUnZnCYHiM6jFHmmQ2mO-15" target="BUnZnCYHiM6jFHmmQ2mO-18">
          <mxGeometry relative="1" as="geometry" />
        </mxCell>
        <mxCell id="BUnZnCYHiM6jFHmmQ2mO-24" style="edgeStyle=orthogonalEdgeStyle;rounded=0;orthogonalLoop=1;jettySize=auto;html=1;exitX=0.5;exitY=0;exitDx=0;exitDy=0;entryX=1;entryY=0.5;entryDx=0;entryDy=0;endArrow=classicThin;endFill=1;endSize=3;" edge="1" parent="WIyWlLk6GJQsqaUBKTNV-1" source="BUnZnCYHiM6jFHmmQ2mO-21" target="BUnZnCYHiM6jFHmmQ2mO-6">
          <mxGeometry relative="1" as="geometry" />
        </mxCell>
        <mxCell id="BUnZnCYHiM6jFHmmQ2mO-21" value="Fix the input information" style="rounded=1;whiteSpace=wrap;html=1;fillColor=#dae8fc;strokeColor=#6c8ebf;" vertex="1" parent="WIyWlLk6GJQsqaUBKTNV-1">
          <mxGeometry x="360" y="270" width="80" height="40" as="geometry" />
        </mxCell>
        <mxCell id="BUnZnCYHiM6jFHmmQ2mO-34" style="edgeStyle=orthogonalEdgeStyle;rounded=0;orthogonalLoop=1;jettySize=auto;html=1;entryX=0;entryY=0.5;entryDx=0;entryDy=0;endArrow=classicThin;endFill=1;endSize=3;" edge="1" parent="WIyWlLk6GJQsqaUBKTNV-1" source="BUnZnCYHiM6jFHmmQ2mO-25" target="BUnZnCYHiM6jFHmmQ2mO-28">
          <mxGeometry relative="1" as="geometry" />
        </mxCell>
        <mxCell id="BUnZnCYHiM6jFHmmQ2mO-39" style="edgeStyle=orthogonalEdgeStyle;rounded=0;orthogonalLoop=1;jettySize=auto;html=1;entryX=0.5;entryY=0;entryDx=0;entryDy=0;endSize=3;endArrow=classicThin;endFill=1;" edge="1" parent="WIyWlLk6GJQsqaUBKTNV-1" source="BUnZnCYHiM6jFHmmQ2mO-25" target="BUnZnCYHiM6jFHmmQ2mO-40">
          <mxGeometry relative="1" as="geometry">
            <mxPoint x="280.0000000000001" y="500" as="targetPoint" />
          </mxGeometry>
        </mxCell>
        <mxCell id="BUnZnCYHiM6jFHmmQ2mO-25" value="Visualization begins" style="rounded=1;whiteSpace=wrap;html=1;fillColor=#dae8fc;strokeColor=#6c8ebf;" vertex="1" parent="WIyWlLk6GJQsqaUBKTNV-1">
          <mxGeometry x="240" y="430" width="80" height="40" as="geometry" />
        </mxCell>
        <mxCell id="BUnZnCYHiM6jFHmmQ2mO-27" value="&#39;Next&#39; or &#39;prev&#39; to see those steps" style="rounded=1;whiteSpace=wrap;html=1;fillColor=#dae8fc;strokeColor=#6c8ebf;" vertex="1" parent="WIyWlLk6GJQsqaUBKTNV-1">
          <mxGeometry x="120" y="425" width="90" height="50" as="geometry" />
        </mxCell>
        <mxCell id="BUnZnCYHiM6jFHmmQ2mO-28" value="&#39;View history&#39; to see each step at once" style="rounded=1;whiteSpace=wrap;html=1;fillColor=#dae8fc;strokeColor=#6c8ebf;" vertex="1" parent="WIyWlLk6GJQsqaUBKTNV-1">
          <mxGeometry x="350" y="425" width="90" height="50" as="geometry" />
        </mxCell>
        <mxCell id="BUnZnCYHiM6jFHmmQ2mO-32" style="edgeStyle=orthogonalEdgeStyle;rounded=0;orthogonalLoop=1;jettySize=auto;html=1;entryX=0.5;entryY=0;entryDx=0;entryDy=0;endArrow=classicThin;endFill=1;endSize=3;exitX=1;exitY=0.5;exitDx=0;exitDy=0;" edge="1" parent="WIyWlLk6GJQsqaUBKTNV-1" source="BUnZnCYHiM6jFHmmQ2mO-40" target="BUnZnCYHiM6jFHmmQ2mO-2">
          <mxGeometry relative="1" as="geometry">
            <mxPoint x="530" y="90" as="targetPoint" />
            <mxPoint x="320.0000000000001" y="520" as="sourcePoint" />
            <Array as="points">
              <mxPoint x="500" y="520" />
              <mxPoint x="500" y="50" />
              <mxPoint x="280" y="50" />
            </Array>
          </mxGeometry>
        </mxCell>
        <mxCell id="BUnZnCYHiM6jFHmmQ2mO-37" style="edgeStyle=orthogonalEdgeStyle;rounded=0;orthogonalLoop=1;jettySize=auto;html=1;entryX=1.025;entryY=0.496;entryDx=0;entryDy=0;entryPerimeter=0;endArrow=classicThin;endFill=1;endSize=3;" edge="1" parent="WIyWlLk6GJQsqaUBKTNV-1" source="BUnZnCYHiM6jFHmmQ2mO-25" target="BUnZnCYHiM6jFHmmQ2mO-27">
          <mxGeometry relative="1" as="geometry" />
        </mxCell>
        <mxCell id="BUnZnCYHiM6jFHmmQ2mO-40" value="end" style="rounded=0;whiteSpace=wrap;html=1;fillColor=#fff2cc;strokeColor=#d6b656;" vertex="1" parent="WIyWlLk6GJQsqaUBKTNV-1">
          <mxGeometry x="250" y="510" width="60" height="20" as="geometry" />
        </mxCell>
      </root>
    </mxGraphModel>
  </diagram>
</mxfile>
